<?xml version="1.0" encoding="utf-8"?>
<!-- Generator: Adobe Illustrator 24.0.2, SVG Export Plug-In . SVG Version: 6.00 Build 0)  -->
<svg version="1.1" id="Capa_1" xmlns="http://www.w3.org/2000/svg" xmlns:xlink="http://www.w3.org/1999/xlink" x="0px" y="0px"
	 viewBox="0 0 32 32" style="enable-background:new 0 0 32 32;" xml:space="preserve">
<style type="text/css">
	.st0{fill:#131C2F;}
	.st1{fill:#F1F7EE;}
</style>
<circle class="st0" cx="16" cy="16" r="15.96"/>
<g>
	<path class="st1" d="M9.64,25.7c-0.43-0.24-0.71-0.49-0.83-0.74c-0.12-0.26-0.18-0.48-0.18-0.67c0-0.43,0.16-1.02,0.48-1.76
		c0.32-0.74,0.75-1.59,1.28-2.54c0.54-0.95,1.14-1.95,1.81-2.99c-0.53-0.03-1.01-0.06-1.45-0.07c-0.44-0.02-0.94-0.02-1.5-0.02H8.7
		c0.21-0.54,0.55-0.92,1.02-1.14c0.47-0.22,1.03-0.32,1.67-0.32c0.27,0,0.56,0.02,0.85,0.05c0.3,0.03,0.6,0.06,0.92,0.1
		c0.8-1.17,1.6-2.29,2.4-3.36c0.8-1.07,1.56-2.03,2.27-2.88c0.71-0.85,1.33-1.53,1.86-2.04c0.67-0.66,1.18-0.98,1.51-0.98
		c0.21,0,0.44,0.08,0.7,0.24c0.26,0.16,0.53,0.37,0.82,0.62c-0.16,0.13-0.36,0.46-0.61,1s-0.51,1.21-0.79,2.03
		c-0.28,0.82-0.56,1.71-0.84,2.69c-0.28,0.98-0.53,1.96-0.76,2.96c-0.22,1-0.4,1.96-0.54,2.87s-0.2,1.72-0.2,2.42
		c0,0.62,0.06,1.1,0.19,1.42c0.13,0.32,0.34,0.48,0.65,0.48c0.38,0,0.85-0.28,1.39-0.85c0.54-0.57,1.14-1.48,1.8-2.72l0.36,0.38
		c-0.5,1.31-1.13,2.38-1.91,3.22c-0.78,0.83-1.6,1.25-2.46,1.25c-0.72,0-1.24-0.32-1.55-0.95s-0.47-1.5-0.47-2.6
		c0-0.42,0.03-0.88,0.08-1.39c0.06-0.51,0.14-1.1,0.25-1.78c-0.7-0.11-1.34-0.2-1.9-0.26c-0.56-0.06-1.09-0.13-1.58-0.19
		c-0.75,1.36-1.49,2.77-2.21,4.24C10.91,22.83,10.25,24.27,9.64,25.7z M17.54,16.53c0.22-0.99,0.48-1.99,0.78-2.99
		c0.3-1,0.61-1.96,0.94-2.88c0.33-0.92,0.64-1.74,0.95-2.46c-0.48,0.35-1.03,0.9-1.64,1.64c-0.62,0.74-1.26,1.63-1.93,2.65
		c-0.67,1.02-1.36,2.14-2.06,3.34c0.51,0.11,1.02,0.23,1.51,0.35C16.57,16.3,17.06,16.42,17.54,16.53z"/>
</g>
</svg>
